<?xml version="1.0" encoding="utf-8"?>
<svg version="1.1" xmlns:xlink="http://www.w3.org/1999/xlink" width="76px" height="58px" xmlns="http://www.w3.org/2000/svg">
  <g transform="matrix(1 0 0 1 -861 -801 )">
    <path d="M 57.1979166666667 2.20089285714286  L 72.6354166666667 12.2991071428571  C 73.5590277777778 12.9032738095238  74.3506944444444 13.7232142857143  75.0104166666667 14.7589285714286  C 75.6701388888889 15.7946428571429  76 16.7440476190476  76 17.6071428571429  L 76 54.8928571428571  C 76 55.7559523809524  75.5381944444444 56.4895833333333  74.6145833333333 57.09375  C 73.6909722222222 57.6979166666667  72.5694444444444 58  71.25 58  L 4.75 58  C 3.43055555555556 58  2.30902777777778 57.6979166666667  1.38541666666667 57.09375  C 0.461805555555555 56.4895833333333  0 55.7559523809524  0 54.8928571428571  L 0 3.10714285714286  C 0 2.24404761904762  0.461805555555555 1.51041666666666  1.38541666666667 0.90625  C 2.30902777777778 0.302083333333335  3.43055555555556 0  4.75 0  L 49.0833333333333 0  C 50.4027777777778 0  51.8541666666667 0.215773809523812  53.4375 0.647321428571429  C 55.0208333333333 1.07886904761905  56.2743055555556 1.59672619047619  57.1979166666667 2.20089285714286  Z M 52.6953125 5.11383928571429  C 52.2994791666667 4.85491071428571  51.6232638888889 4.61755952380952  50 4.40178571428571  L 50 17  L 69.2708333333333 17  C 68.9409722222222 15.9456845238095  68.578125 15.5033482142857  68.1822916666667 15.2444196428571  L 52.6953125 5.11383928571429  Z M 7 53  L 69 53  L 69 21  L 49.0833333333333 21  C 47.7638888888889 20.7142857142857  46.6423611111111 20.4122023809524  45.71875 19.8080357142857  C 44.7951388888889 19.203869047619  44.3333333333333 18.4702380952381  44 17.6071428571429  L 44 5  L 7 5  L 7 53  Z M 37.0104166666667 26.9609375  C 38.8246527777778 30.4996279761905  41.2326388888889 33.0673363095238  44.234375 34.6640625  C 45.3229166666667 35.2250744047619  46.7083333333333 35.8292410714286  48.390625 36.4765625  C 50.3368055555556 36.3255208333333  52.2664930555556 36.25  54.1796875 36.25  C 59.0286458333333 36.25  61.9479166666667 36.7786458333333  62.9375 37.8359375  C 63.4652777777778 38.3106398809524  63.4982638888889 38.8716517857143  63.0364583333333 39.5189732142857  C 63.0364583333333 39.5405505952381  63.0199652777778 39.5621279761905  62.9869791666667 39.5837053571429  L 62.8880208333333 39.6484375  L 62.8880208333333 39.6808035714286  C 62.6901041666667 40.500744047619  61.5190972222222 40.9107142857143  59.375 40.9107142857143  C 57.7916666666667 40.9107142857143  55.8949652777778 40.6949404761905  53.6848958333333 40.2633928571429  C 51.4748263888889 39.8318452380952  49.3307291666667 39.2600446428571  47.2526041666667 38.5479910714286  C 39.9626736111111 39.0658482142857  33.4973958333333 39.9613095238095  27.8567708333333 41.234375  C 22.8098958333333 46.8876488095238  18.8185763888889 49.7142857142857  15.8828125 49.7142857142857  C 15.3880208333333 49.7142857142857  14.9262152777778 49.6387648809524  14.4973958333333 49.4877232142857  L 13.3098958333333 49.0993303571429  C 13.2769097222222 49.0777529761905  13.1779513888889 49.0238095238095  13.0130208333333 48.9375  C 12.6831597222222 48.7217261904762  12.5842013888889 48.3333333333333  12.7161458333333 47.7723214285714  C 13.0130208333333 46.9092261904762  13.9366319444444 45.9220610119048  15.4869791666667 44.8108258928571  C 17.0373263888889 43.6995907738095  19.2144097222222 42.6584821428571  22.0182291666667 41.6875  C 22.4800347222222 41.4933035714286  22.859375 41.5580357142857  23.15625 41.8816964285714  C 23.2222222222222 41.9248511904762  23.2552083333333 41.9680059523809  23.2552083333333 42.0111607142857  C 24.9704861111111 40.1770833333333  26.7352430555556 38.0517113095238  28.5494791666667 35.6350446428571  C 30.7925347222222 32.7005208333333  32.5078125 29.8738839285714  33.6953125 27.1551339285714  C 32.9036458333333 25.3857886904762  32.4006076388889 23.6649925595238  32.1861979166667 21.9927455357143  C 31.9717881944445 20.3204985119048  32.0789930555556 18.9449404761905  32.5078125 17.8660714285714  C 32.8706597222222 17.0029761904762  33.5633680555556 16.5714285714286  34.5859375 16.5714285714286  L 35.625 16.5714285714286  L 35.6744791666667 16.5714285714286  C 36.4331597222222 16.5714285714286  37.0104166666667 16.7332589285714  37.40625 17.0569196428571  C 38 17.5100446428571  38.1484375 18.2436755952381  37.8515625 19.2578125  C 37.7855902777778 19.3872767857143  37.7196180555556 19.4735863095238  37.6536458333333 19.5167410714286  C 37.6866319444445 19.5814732142857  37.703125 19.6677827380952  37.703125 19.7756696428571  L 37.703125 20.7466517857143  C 37.6371527777778 23.4006696428571  37.40625 25.4720982142857  37.0104166666667 26.9609375  Z M 18.18359375 45.5714285714286  C 16.9796006944444 46.5208333333333  16.1631944444444 47.3191964285714  15.734375 47.9665178571429  C 17.4496527777778 47.4486607142857  19.7092013888889 45.7440476190476  22.5130208333333 42.8526785714286  C 20.8307291666667 43.7157738095238  19.3875868055556 44.6220238095238  18.18359375 45.5714285714286  Z M 35.4270833333333 18.125  L 35.4270833333333 18.1897321428571  C 34.9322916666667 19.0959821428571  34.8993055555556 20.5200892857143  35.328125 22.4620535714286  C 35.3611111111111 22.3110119047619  35.4765625 21.8363095238095  35.6744791666667 21.0379464285714  C 35.6744791666667 20.9732142857143  35.7899305555556 20.5093005952381  36.0208333333333 19.6462053571429  C 36.0538194444445 19.5598958333333  36.1197916666667 19.4735863095238  36.21875 19.3872767857143  C 36.1857638888889 19.3656994047619  36.1692708333333 19.3441220238095  36.1692708333333 19.3225446428571  C 36.1362847222222 19.2793898809524  36.1197916666667 19.2470238095238  36.1197916666667 19.2254464285714  C 36.0868055555556 18.750744047619  35.8723958333333 18.3623511904762  35.4765625 18.0602678571429  C 35.4765625 18.0818452380952  35.4600694444445 18.1034226190476  35.4270833333333 18.125  Z M 31.5182291666667 36.8973214285714  C 30.5286458333333 38.1056547619048  29.7864583333333 39.0011160714286  29.2916666666667 39.5837053571429  C 33.7447916666667 38.4185267857143  38.4288194444445 37.5446428571429  43.34375 36.9620535714286  C 43.2777777777778 36.9404761904762  43.0633680555556 36.8379836309524  42.7005208333333 36.6545758928571  C 42.3376736111111 36.4711681547619  42.0737847222222 36.3255208333333  41.9088541666667 36.2176339285714  C 39.4019097222222 34.7719494047619  37.3072916666667 32.8731398809524  35.625 30.5212053571429  C 34.734375 32.3768601190476  33.3654513888889 34.5022321428571  31.5182291666667 36.8973214285714  Z M 61.3541666666667 39.1629464285714  C 61.3541666666667 39.141369047619  61.3211805555556 39.1090029761905  61.2552083333333 39.0658482142857  C 60.4635416666667 38.5479910714286  58.1545138888889 38.2890625  54.328125 38.2890625  C 56.8350694444445 38.8932291666667  58.8802083333333 39.1953125  60.4635416666667 39.1953125  C 60.9253472222222 39.1953125  61.2222222222222 39.1845238095238  61.3541666666667 39.1629464285714  Z " fill-rule="nonzero" fill="#000000" stroke="none" transform="matrix(1 0 0 1 861 801 )" />
  </g>
</svg>