<?xml version="1.0" encoding="utf-8"?>
<svg version="1.1" xmlns:xlink="http://www.w3.org/1999/xlink" width="61px" height="71px" xmlns="http://www.w3.org/2000/svg">
  <g transform="matrix(1 0 0 1 -994 -459 )">
    <path d="M 50.8333333333333 20.2857142857143  C 50.8333333333333 24.1685267857143  49.7875434027778 27.7607886904762  47.6959635416667 31.0625  C 48.9403211805556 31.4322916666667  50.1251085069444 31.9341517857143  51.2503255208333 32.5680803571429  C 52.3755425347222 33.2020089285714  53.5537109375 34.1661086309524  54.7848307291667 35.4603794642857  C 56.0159505208333 36.754650297619  57.068359375 38.280040922619  57.9420572916667 40.0365513392857  C 58.8157552083333 41.7930617559524  59.5438368055556 44.0646391369048  60.1263020833333 46.8512834821429  C 60.7087673611111 49.637927827381  61 52.7613467261905  61 56.2215401785714  C 61 60.2892485119048  59.6762152777778 63.7692522321429  57.0286458333333 66.6615513392857  C 54.3810763888889 69.5538504464286  51.1907552083333 71  47.4576822916667 71  L 13.5423177083333 71  C 9.80924479166667 71  6.61892361111111 69.5538504464286  3.97135416666667 66.6615513392857  C 1.32378472222222 63.7692522321429  0 60.2892485119048  0 56.2215401785714  C 0 52.7613467261905  0.291232638888889 49.637927827381  0.873697916666667 46.8512834821429  C 1.45616319444444 44.0646391369048  2.18424479166667 41.7930617559524  3.05794270833333 40.0365513392857  C 3.931640625 38.280040922619  4.98404947916667 36.754650297619  6.21516927083333 35.4603794642857  C 7.4462890625 34.1661086309524  8.62445746527778 33.2020089285714  9.74967447916667 32.5680803571429  C 10.8748914930556 31.9341517857143  12.0596788194444 31.4322916666667  13.3040364583333 31.0625  C 11.2124565972222 27.7607886904762  10.1666666666667 24.1685267857143  10.1666666666667 20.2857142857143  C 10.1666666666667 17.5386904761905  10.7027994791667 14.9171316964286  11.7750651041667 12.4210379464286  C 12.8473307291667 9.92494419642857  14.296875 7.765625  16.1236979166667 5.94308035714285  C 17.9505208333333 4.12053571428572  20.1149088541667 2.67438616071428  22.6168619791667 1.60463169642857  C 25.1188151041667 0.534877232142854  27.7465277777778 0  30.5 0  C 33.2534722222222 0  35.8811848958333 0.534877232142854  38.3831380208333 1.60463169642857  C 40.8850911458333 2.67438616071428  43.0494791666667 4.12053571428572  44.8763020833333 5.94308035714285  C 46.703125 7.765625  48.1526692708333 9.92494419642857  49.2249348958333 12.4210379464286  C 50.2972005208333 14.9171316964286  50.8333333333333 17.5386904761905  50.8333333333333 20.2857142857143  Z M 41.2822265625 9.52873883928572  C 38.3037109375 6.55719866071428  34.7096354166667 5.07142857142857  30.5 5.07142857142857  C 26.2903645833333 5.07142857142857  22.6962890625 6.55719866071428  19.7177734375 9.52873883928572  C 16.7392578125 12.5002790178571  15.25 16.0859375  15.25 20.2857142857143  C 15.25 24.4854910714286  16.7392578125 28.0711495535714  19.7177734375 31.0426897321429  C 22.6962890625 34.0142299107143  26.2903645833333 35.5  30.5 35.5  C 34.7096354166667 35.5  38.3037109375 34.0142299107143  41.2822265625 31.0426897321429  C 44.2607421875 28.0711495535714  45.75 24.4854910714286  45.75 20.2857142857143  C 45.75 16.0859375  44.2607421875 12.5002790178571  41.2822265625 9.52873883928572  Z M 13.5423177083333 66  L 47.4576822916667 66  C 49.7875434027778 65.9285714285714  51.7798394097222 64.9842819940476  53.4345703125 63.095703125  C 55.0893012152778 61.2071242559524  55.9166666666667 58.9157366071429  55.9166666666667 56.2215401785714  C 55.9166666666667 49.9086681547619  54.8774956597222 44.9296875  52.7991536458333 41.2845982142857  C 50.7208116319444 37.6395089285714  47.7356770833333 35.7245163690476  43.84375 35.5396205357143  C 40.0047743055556 38.8941592261905  35.5568576388889 40.5714285714286  30.5 40.5714285714286  C 25.4431423611111 40.5714285714286  20.9952256944445 38.8941592261905  17.15625 35.5396205357143  C 13.2643229166667 35.7245163690476  10.2791883680556 37.6395089285714  8.20084635416667 41.2845982142857  C 6.12250434027778 44.9296875  5.08333333333333 49.9086681547619  5.08333333333333 56.2215401785714  C 5.08333333333333 58.9157366071429  5.91069878472222 61.2071242559524  7.5654296875 63.095703125  C 9.22016059027778 64.9842819940476  11.2124565972222 65.9285714285714  13.5423177083333 66  Z " fill-rule="nonzero" fill="#000000" stroke="none" transform="matrix(1 0 0 1 994 459 )" />
  </g>
</svg>