<?xml version="1.0" encoding="utf-8"?>
<svg version="1.1" xmlns:xlink="http://www.w3.org/1999/xlink" width="32px" height="32px" viewBox="1118 820  32 32" xmlns="http://www.w3.org/2000/svg">
  <path d="M 1134 820  C 1142.96 820  1150 827.04  1150 836  C 1150 844.96  1142.96 852  1134 852  C 1125.04 852  1118 844.96  1118 836  C 1118 827.04  1125.04 820  1134 820  Z " fill-rule="nonzero" fill="#ffffff" stroke="none" />
  <path d="M 1134 820.5  C 1142.68 820.5  1149.5 827.32  1149.5 836  C 1149.5 844.68  1142.68 851.5  1134 851.5  C 1125.32 851.5  1118.5 844.68  1118.5 836  C 1118.5 827.32  1125.32 820.5  1134 820.5  Z " stroke-width="1" stroke="#797979" fill="none" />
  <path d="M 1134 844  C 1129.52 844  1126 840.48  1126 836  C 1126 831.52  1129.52 828  1134 828  C 1138.48 828  1142 831.52  1142 836  C 1142 840.48  1138.48 844  1134 844  " fill-rule="nonzero" fill="#797979" stroke="none" />
</svg>