<?xml version="1.0" encoding="utf-8"?>
<svg version="1.1" xmlns:xlink="http://www.w3.org/1999/xlink" width="300px" height="60px" xmlns="http://www.w3.org/2000/svg">
  <g transform="matrix(1 0 0 1 0 -508 )">
    <path d="M 1 518  A 9 9 0 0 1 10 509 L 290 509  A 9 9 0 0 1 299 518 L 299 558  A 9 9 0 0 1 290 567 L 10 567  A 9 9 0 0 1 1 558 L 1 518  Z " fill-rule="nonzero" fill="#404040" stroke="none" fill-opacity="0.00392156862745098" />
    <path d="M 0.5 518  A 9.5 9.5 0 0 1 10 508.5 L 290 508.5  A 9.5 9.5 0 0 1 299.5 518 L 299.5 558  A 9.5 9.5 0 0 1 290 567.5 L 10 567.5  A 9.5 9.5 0 0 1 0.5 558 L 0.5 518  Z " stroke-width="1" stroke="#169bd5" fill="none" stroke-opacity="0.580392156862745" />
  </g>
</svg>