<?xml version="1.0" encoding="utf-8"?>
<svg version="1.1" xmlns:xlink="http://www.w3.org/1999/xlink" width="11px" height="22px" xmlns="http://www.w3.org/2000/svg">
  <g transform="matrix(1 0 0 1 -245 -16 )">
    <path d="M 10.8109965635739 10.4929859719439  C 10.9369988545246 10.6399465597862  11 10.8089512358049  11 11  C 11 11.1910487641951  10.9369988545246 11.3600534402138  10.8109965635739 11.5070140280561  L 2.00343642611684 21.7795591182365  C 1.87743413516609 21.9265197060788  1.73253150057274 22  1.56872852233677 22  C 1.4049255441008 22  1.26002290950745 21.9265197060788  1.1340206185567 21.7795591182365  L 0.189003436426117 20.6773547094188  C 0.0630011454753723 20.5303941215765  0 20.3613894455578  0 20.1703406813627  C 0 19.9792919171677  0.0630011454753723 19.810287241149  0.189003436426117 19.6633266533066  L 7.61683848797251 11  L 0.189003436426117 2.33667334669339  C 0.0630011454753723 2.18971275885103  0 2.02070808283233  0 1.82965931863728  C 0 1.63861055444221  0.0630011454753723 1.46960587842351  0.189003436426117 1.32264529058116  L 1.1340206185567 0.220440881763527  C 1.26002290950745 0.0734802939211749  1.4049255441008 0  1.56872852233677 0  C 1.73253150057274 0  1.87743413516609 0.0734802939211749  2.00343642611684 0.220440881763527  L 10.8109965635739 10.4929859719439  Z " fill-rule="nonzero" fill="#404040" stroke="none" fill-opacity="0.831372549019608" transform="matrix(1 0 0 1 245 16 )" />
  </g>
</svg>