<?xml version="1.0" encoding="utf-8"?>
<svg version="1.1" xmlns:xlink="http://www.w3.org/1999/xlink" width="34px" height="34px" viewBox="1001 591  34 34" xmlns="http://www.w3.org/2000/svg">
  <path d="M 1018 591  C 1027.52 591  1035 598.48  1035 608  C 1035 617.52  1027.52 625  1018 625  C 1008.48 625  1001 617.52  1001 608  C 1001 598.48  1008.48 591  1018 591  Z " fill-rule="nonzero" fill="#ffffff" stroke="none" />
  <path d="M 1018 591.5  C 1027.24 591.5  1034.5 598.76  1034.5 608  C 1034.5 617.24  1027.24 624.5  1018 624.5  C 1008.76 624.5  1001.5 617.24  1001.5 608  C 1001.5 598.76  1008.76 591.5  1018 591.5  Z " stroke-width="1" stroke="#797979" fill="none" />
  <path d="M 1018 616.5  C 1013.24 616.5  1009.5 612.76  1009.5 608  C 1009.5 603.24  1013.24 599.5  1018 599.5  C 1022.76 599.5  1026.5 603.24  1026.5 608  C 1026.5 612.76  1022.76 616.5  1018 616.5  " fill-rule="nonzero" fill="#797979" stroke="none" />
</svg>