<?xml version="1.0" encoding="utf-8"?>
<svg version="1.1" xmlns:xlink="http://www.w3.org/1999/xlink" width="32px" height="32px" viewBox="1096 734  32 32" xmlns="http://www.w3.org/2000/svg">
  <path d="M 1112 734  C 1120.96 734  1128 741.04  1128 750  C 1128 758.96  1120.96 766  1112 766  C 1103.04 766  1096 758.96  1096 750  C 1096 741.04  1103.04 734  1112 734  Z " fill-rule="nonzero" fill="#ffffff" stroke="none" />
  <path d="M 1112 734.5  C 1120.68 734.5  1127.5 741.32  1127.5 750  C 1127.5 758.68  1120.68 765.5  1112 765.5  C 1103.32 765.5  1096.5 758.68  1096.5 750  C 1096.5 741.32  1103.32 734.5  1112 734.5  Z " stroke-width="1" stroke="#797979" fill="none" />
  <path d="M 1112 758  C 1107.52 758  1104 754.48  1104 750  C 1104 745.52  1107.52 742  1112 742  C 1116.48 742  1120 745.52  1120 750  C 1120 754.48  1116.48 758  1112 758  " fill-rule="nonzero" fill="#797979" stroke="none" />
</svg>