<?xml version="1.0" encoding="utf-8"?>
<svg version="1.1" xmlns:xlink="http://www.w3.org/1999/xlink" width="32px" height="32px" viewBox="1096 842  32 32" xmlns="http://www.w3.org/2000/svg">
  <path d="M 1112 842  C 1120.96 842  1128 849.04  1128 858  C 1128 866.96  1120.96 874  1112 874  C 1103.04 874  1096 866.96  1096 858  C 1096 849.04  1103.04 842  1112 842  Z " fill-rule="nonzero" fill="#ffffff" stroke="none" />
  <path d="M 1112 842.5  C 1120.68 842.5  1127.5 849.32  1127.5 858  C 1127.5 866.68  1120.68 873.5  1112 873.5  C 1103.32 873.5  1096.5 866.68  1096.5 858  C 1096.5 849.32  1103.32 842.5  1112 842.5  Z " stroke-width="1" stroke="#797979" fill="none" />
  <path d="M 1112 866  C 1107.52 866  1104 862.48  1104 858  C 1104 853.52  1107.52 850  1112 850  C 1116.48 850  1120 853.52  1120 858  C 1120 862.48  1116.48 866  1112 866  " fill-rule="nonzero" fill="#797979" stroke="none" />
</svg>