<?xml version="1.0" encoding="utf-8"?>
<svg version="1.1" xmlns:xlink="http://www.w3.org/1999/xlink" width="34px" height="34px" viewBox="1001 649  34 34" xmlns="http://www.w3.org/2000/svg">
  <path d="M 1018 649  C 1027.52 649  1035 656.48  1035 666  C 1035 675.52  1027.52 683  1018 683  C 1008.48 683  1001 675.52  1001 666  C 1001 656.48  1008.48 649  1018 649  Z " fill-rule="nonzero" fill="#ffffff" stroke="none" />
  <path d="M 1018 649.5  C 1027.24 649.5  1034.5 656.76  1034.5 666  C 1034.5 675.24  1027.24 682.5  1018 682.5  C 1008.76 682.5  1001.5 675.24  1001.5 666  C 1001.5 656.76  1008.76 649.5  1018 649.5  Z " stroke-width="1" stroke="#797979" fill="none" />
  <path d="M 1018 674.5  C 1013.24 674.5  1009.5 670.76  1009.5 666  C 1009.5 661.24  1013.24 657.5  1018 657.5  C 1022.76 657.5  1026.5 661.24  1026.5 666  C 1026.5 670.76  1022.76 674.5  1018 674.5  " fill-rule="nonzero" fill="#797979" stroke="none" />
</svg>