<?xml version="1.0" encoding="utf-8"?>
<svg version="1.1" xmlns:xlink="http://www.w3.org/1999/xlink" width="34px" height="34px" viewBox="1001 710  34 34" xmlns="http://www.w3.org/2000/svg">
  <path d="M 1018 710  C 1027.52 710  1035 717.48  1035 727  C 1035 736.52  1027.52 744  1018 744  C 1008.48 744  1001 736.52  1001 727  C 1001 717.48  1008.48 710  1018 710  Z " fill-rule="nonzero" fill="#ffffff" stroke="none" />
  <path d="M 1018 710.5  C 1027.24 710.5  1034.5 717.76  1034.5 727  C 1034.5 736.24  1027.24 743.5  1018 743.5  C 1008.76 743.5  1001.5 736.24  1001.5 727  C 1001.5 717.76  1008.76 710.5  1018 710.5  Z " stroke-width="1" stroke="#797979" fill="none" />
  <path d="M 1018 735.5  C 1013.24 735.5  1009.5 731.76  1009.5 727  C 1009.5 722.24  1013.24 718.5  1018 718.5  C 1022.76 718.5  1026.5 722.24  1026.5 727  C 1026.5 731.76  1022.76 735.5  1018 735.5  " fill-rule="nonzero" fill="#797979" stroke="none" />
</svg>