<?xml version="1.0" encoding="utf-8"?>
<svg version="1.1" xmlns:xlink="http://www.w3.org/1999/xlink" width="34px" height="34px" viewBox="1001 769  34 34" xmlns="http://www.w3.org/2000/svg">
  <path d="M 1018 769  C 1027.52 769  1035 776.48  1035 786  C 1035 795.52  1027.52 803  1018 803  C 1008.48 803  1001 795.52  1001 786  C 1001 776.48  1008.48 769  1018 769  Z " fill-rule="nonzero" fill="#ffffff" stroke="none" />
  <path d="M 1018 769.5  C 1027.24 769.5  1034.5 776.76  1034.5 786  C 1034.5 795.24  1027.24 802.5  1018 802.5  C 1008.76 802.5  1001.5 795.24  1001.5 786  C 1001.5 776.76  1008.76 769.5  1018 769.5  Z " stroke-width="1" stroke="#797979" fill="none" />
  <path d="M 1018 794.5  C 1013.24 794.5  1009.5 790.76  1009.5 786  C 1009.5 781.24  1013.24 777.5  1018 777.5  C 1022.76 777.5  1026.5 781.24  1026.5 786  C 1026.5 790.76  1022.76 794.5  1018 794.5  " fill-rule="nonzero" fill="#797979" stroke="none" />
</svg>