<?xml version="1.0" encoding="utf-8"?>
<svg version="1.1" xmlns:xlink="http://www.w3.org/1999/xlink" width="217px" height="141px" xmlns="http://www.w3.org/2000/svg">
  <g transform="matrix(1 0 0 1 -392 -547 )">
    <path d="M 393 590  A 42 42 0 0 1 435 548 L 566 548  A 42 42 0 0 1 608 590 L 608 645  A 42 42 0 0 1 566 687 L 435 687  A 42 42 0 0 1 393 645 L 393 590  Z " fill-rule="nonzero" fill="#bbded6" stroke="none" fill-opacity="0.63921568627451" />
    <path d="M 392.5 590  A 42.5 42.5 0 0 1 435 547.5 L 566 547.5  A 42.5 42.5 0 0 1 608.5 590 L 608.5 645  A 42.5 42.5 0 0 1 566 687.5 L 435 687.5  A 42.5 42.5 0 0 1 392.5 645 L 392.5 590  Z " stroke-width="1" stroke="#bbded6" fill="none" stroke-opacity="0.63921568627451" />
  </g>
</svg>