<?xml version="1.0" encoding="utf-8"?>
<svg version="1.1" xmlns:xlink="http://www.w3.org/1999/xlink" width="32px" height="32px" xmlns="http://www.w3.org/2000/svg">
  <g transform="matrix(1 0 0 1 -1228 -1040 )">
    <path d="M 1244 1040  C 1252.96 1040  1260 1047.04  1260 1056  C 1260 1064.96  1252.96 1072  1244 1072  C 1235.04 1072  1228 1064.96  1228 1056  C 1228 1047.04  1235.04 1040  1244 1040  Z " fill-rule="nonzero" fill="#ffffff" stroke="none" />
    <path d="M 1244 1040.5  C 1252.68 1040.5  1259.5 1047.32  1259.5 1056  C 1259.5 1064.68  1252.68 1071.5  1244 1071.5  C 1235.32 1071.5  1228.5 1064.68  1228.5 1056  C 1228.5 1047.32  1235.32 1040.5  1244 1040.5  Z " stroke-width="1" stroke="#797979" fill="none" />
  </g>
</svg>