<?xml version="1.0" encoding="utf-8"?>
<svg version="1.1" xmlns:xlink="http://www.w3.org/1999/xlink" width="61px" height="78px" xmlns="http://www.w3.org/2000/svg">
  <g transform="matrix(1 0 0 1 -994 -605 )">
    <path d="M 17 24.8181818181818  L 17 36  L 44 36  L 44 24.8181818181818  C 44.0555555555556 20.9034090909091  42.7317708333333 17.5610795454545  40.0842013888889 14.7911931818182  C 37.4366319444444 12.0213068181818  34.2418981481482 10.6363636363636  30.5 10.6363636363636  C 26.7581018518519 10.6363636363636  23.5633680555556 12.0213068181818  20.9157986111111 14.7911931818182  C 18.2682291666667 17.5610795454545  16.9444444444444 20.9034090909091  17 24.8181818181818  Z M 59.5173611111111 37.0056818181818  C 60.505787037037 38.0397727272727  61 39.2954545454545  61 40.7727272727273  L 61 72.6818181818182  C 61 74.1590909090909  60.505787037037 75.4147727272727  59.5173611111111 76.4488636363636  C 58.5289351851852 77.4829545454545  57.3287037037037 78  55.9166666666667 78  L 5.08333333333333 78  C 3.6712962962963 78  2.47106481481482 77.4829545454545  1.48263888888889 76.4488636363636  C 0.494212962962963 75.4147727272727  0 74.1590909090909  0 72.6818181818182  L 0 40.7727272727273  C 0 39.2954545454545  0.494212962962963 38.0397727272727  1.48263888888889 37.0056818181818  C 2.47106481481482 35.9715909090909  3.6712962962963 35.4545454545455  5.08333333333333 35.4545454545455  L 7 35.4545454545455  L 7 24.8181818181818  C 6.77777777777778 18.0227272727273  9.10763888888889 12.1875  13.7673611111111 7.3125  C 18.4270833333333 2.4375  24.0046296296296 0  30.5 0  C 36.9953703703704 0  42.5729166666667 2.4375  47.2326388888889 7.3125  C 51.8923611111111 12.1875  54.2222222222222 18.0227272727273  54 24.8181818181818  L 54 35.4545454545455  L 55.9166666666667 35.4545454545455  C 57.3287037037037 35.4545454545455  58.5289351851852 35.9715909090909  59.5173611111111 37.0056818181818  Z " fill-rule="nonzero" fill="#000000" stroke="none" transform="matrix(1 0 0 1 994 605 )" />
  </g>
</svg>