<?xml version="1.0" encoding="utf-8"?>
<svg version="1.1" xmlns:xlink="http://www.w3.org/1999/xlink" width="32px" height="32px" viewBox="1096 680  32 32" xmlns="http://www.w3.org/2000/svg">
  <path d="M 1112 680  C 1120.96 680  1128 687.04  1128 696  C 1128 704.96  1120.96 712  1112 712  C 1103.04 712  1096 704.96  1096 696  C 1096 687.04  1103.04 680  1112 680  Z " fill-rule="nonzero" fill="#ffffff" stroke="none" />
  <path d="M 1112 680.5  C 1120.68 680.5  1127.5 687.32  1127.5 696  C 1127.5 704.68  1120.68 711.5  1112 711.5  C 1103.32 711.5  1096.5 704.68  1096.5 696  C 1096.5 687.32  1103.32 680.5  1112 680.5  Z " stroke-width="1" stroke="#797979" fill="none" />
  <path d="M 1112 704  C 1107.52 704  1104 700.48  1104 696  C 1104 691.52  1107.52 688  1112 688  C 1116.48 688  1120 691.52  1120 696  C 1120 700.48  1116.48 704  1112 704  " fill-rule="nonzero" fill="#797979" stroke="none" />
</svg>