<?xml version="1.0" encoding="utf-8"?>
<svg version="1.1" xmlns:xlink="http://www.w3.org/1999/xlink" width="76px" height="88px" xmlns="http://www.w3.org/2000/svg">
  <g transform="matrix(1 0 0 1 -911 -917 )">
    <path d="M 57.1979166666667 3.33928571428572  L 72.6354166666667 18.6607142857143  C 73.5590277777778 19.5773809523809  74.3506944444444 20.8214285714286  75.0104166666667 22.3928571428571  C 75.6701388888889 23.9642857142857  76 25.4047619047619  76 26.7142857142857  L 76 83.2857142857143  C 76 84.5952380952381  75.5381944444444 85.7083333333333  74.6145833333333 86.625  C 73.6909722222222 87.5416666666667  72.5694444444444 88  71.25 88  L 4.75 88  C 3.43055555555556 88  2.30902777777778 87.5416666666667  1.38541666666667 86.625  C 0.461805555555555 85.7083333333333  0 84.5952380952381  0 83.2857142857143  L 0 4.71428571428572  C 0 3.4047619047619  0.461805555555555 2.29166666666666  1.38541666666667 1.375  C 2.30902777777778 0.458333333333337  3.43055555555556 0  4.75 0  L 49.0833333333333 0  C 50.4027777777778 0  51.8541666666667 0.327380952380956  53.4375 0.982142857142859  C 55.0208333333333 1.63690476190476  56.2743055555556 2.42261904761904  57.1979166666667 3.33928571428572  Z M 52.6953125 7.75892857142858  C 52.2994791666667 7.36607142857142  51.6232638888889 7.00595238095237  50 6.67857142857142  L 50 26  L 69.2708333333333 26  C 68.9409722222222 24.1934523809524  68.578125 23.5223214285714  68.1822916666667 23.1294642857143  L 52.6953125 7.75892857142858  Z M 7 81  L 69 81  L 69 32  L 49.0833333333333 32  C 47.7638888888889 31.4285714285714  46.6423611111111 30.9702380952381  45.71875 30.0535714285714  C 44.7951388888889 29.1369047619048  44.3333333333333 28.0238095238095  44 26.7142857142857  L 44 7  L 7 7  L 7 81  Z M 37.0104166666667 40.90625  C 38.8246527777778 46.2752976190476  41.2326388888889 50.171130952381  44.234375 52.59375  C 45.3229166666667 53.4449404761905  46.7083333333333 54.3616071428571  48.390625 55.34375  C 50.3368055555556 55.1145833333333  52.2664930555556 55  54.1796875 55  C 59.0286458333333 55  61.9479166666667 55.8020833333333  62.9375 57.40625  C 63.4652777777778 58.1264880952381  63.4982638888889 58.9776785714286  63.0364583333333 59.9598214285714  C 63.0364583333333 59.9925595238095  63.0199652777778 60.0252976190476  62.9869791666667 60.0580357142857  L 62.8880208333333 60.15625  L 62.8880208333333 60.2053571428571  C 62.6901041666667 61.4494047619048  61.5190972222222 62.0714285714286  59.375 62.0714285714286  C 57.7916666666667 62.0714285714286  55.8949652777778 61.7440476190476  53.6848958333333 61.0892857142857  C 51.4748263888889 60.4345238095238  49.3307291666667 59.5669642857143  47.2526041666667 58.4866071428571  C 39.9626736111111 59.2723214285714  33.4973958333333 60.6309523809524  27.8567708333333 62.5625  C 22.8098958333333 71.139880952381  18.8185763888889 75.4285714285714  15.8828125 75.4285714285714  C 15.3880208333333 75.4285714285714  14.9262152777778 75.3139880952381  14.4973958333333 75.0848214285714  L 13.3098958333333 74.4955357142857  C 13.2769097222222 74.4627976190476  13.1779513888889 74.3809523809524  13.0130208333333 74.25  C 12.6831597222222 73.922619047619  12.5842013888889 73.3333333333333  12.7161458333333 72.4821428571429  C 13.0130208333333 71.172619047619  13.9366319444444 69.6748511904762  15.4869791666667 67.9888392857143  C 17.0373263888889 66.3028273809524  19.2144097222222 64.7232142857143  22.0182291666667 63.25  C 22.4800347222222 62.9553571428571  22.859375 63.0535714285714  23.15625 63.5446428571429  C 23.2222222222222 63.610119047619  23.2552083333333 63.6755952380952  23.2552083333333 63.7410714285714  C 24.9704861111111 60.9583333333333  26.7352430555556 57.7336309523809  28.5494791666667 54.0669642857143  C 30.7925347222222 49.6145833333333  32.5078125 45.3258928571429  33.6953125 41.2008928571429  C 32.9036458333333 38.516369047619  32.4006076388889 35.9055059523809  32.1861979166667 33.3683035714286  C 31.9717881944445 30.8311011904762  32.0789930555556 28.7440476190476  32.5078125 27.1071428571429  C 32.8706597222222 25.797619047619  33.5633680555556 25.1428571428571  34.5859375 25.1428571428571  L 35.625 25.1428571428571  L 35.6744791666667 25.1428571428571  C 36.4331597222222 25.1428571428571  37.0104166666667 25.3883928571429  37.40625 25.8794642857143  C 38 26.5669642857143  38.1484375 27.6800595238095  37.8515625 29.21875  C 37.7855902777778 29.4151785714286  37.7196180555556 29.5461309523809  37.6536458333333 29.6116071428571  C 37.6866319444445 29.7098214285714  37.703125 29.8407738095238  37.703125 30.0044642857143  L 37.703125 31.4776785714286  C 37.6371527777778 35.5044642857143  37.40625 38.6473214285714  37.0104166666667 40.90625  Z M 18.18359375 69.1428571428571  C 16.9796006944444 70.5833333333333  16.1631944444444 71.7946428571429  15.734375 72.7767857142857  C 17.4496527777778 71.9910714285714  19.7092013888889 69.4047619047619  22.5130208333333 65.0178571428571  C 20.8307291666667 66.327380952381  19.3875868055556 67.702380952381  18.18359375 69.1428571428571  Z M 35.4270833333333 27.5  L 35.4270833333333 27.5982142857143  C 34.9322916666667 28.9732142857143  34.8993055555556 31.1339285714286  35.328125 34.0803571428571  C 35.3611111111111 33.8511904761905  35.4765625 33.1309523809524  35.6744791666667 31.9196428571429  C 35.6744791666667 31.8214285714286  35.7899305555556 31.1175595238095  36.0208333333333 29.8080357142857  C 36.0538194444445 29.6770833333333  36.1197916666667 29.5461309523809  36.21875 29.4151785714286  C 36.1857638888889 29.3824404761905  36.1692708333333 29.3497023809524  36.1692708333333 29.3169642857143  C 36.1362847222222 29.2514880952381  36.1197916666667 29.2023809523809  36.1197916666667 29.1696428571429  C 36.0868055555556 28.4494047619048  35.8723958333333 27.860119047619  35.4765625 27.4017857142857  C 35.4765625 27.4345238095238  35.4600694444445 27.4672619047619  35.4270833333333 27.5  Z M 31.5182291666667 55.9821428571429  C 30.5286458333333 57.8154761904762  29.7864583333333 59.1741071428571  29.2916666666667 60.0580357142857  C 33.7447916666667 58.2901785714286  38.4288194444445 56.9642857142857  43.34375 56.0803571428571  C 43.2777777777778 56.047619047619  43.0633680555556 55.8921130952381  42.7005208333333 55.6138392857143  C 42.3376736111111 55.3355654761905  42.0737847222222 55.1145833333333  41.9088541666667 54.9508928571429  C 39.4019097222222 52.7574404761905  37.3072916666667 49.8764880952381  35.625 46.3080357142857  C 34.734375 49.1235119047619  33.3654513888889 52.3482142857143  31.5182291666667 55.9821428571429  Z M 61.3541666666667 59.4196428571429  C 61.3541666666667 59.3869047619048  61.3211805555556 59.3377976190476  61.2552083333333 59.2723214285714  C 60.4635416666667 58.4866071428571  58.1545138888889 58.09375  54.328125 58.09375  C 56.8350694444445 59.0104166666667  58.8802083333333 59.46875  60.4635416666667 59.46875  C 60.9253472222222 59.46875  61.2222222222222 59.4523809523809  61.3541666666667 59.4196428571429  Z " fill-rule="nonzero" fill="#000000" stroke="none" transform="matrix(1 0 0 1 911 917 )" />
  </g>
</svg>