<?xml version="1.0" encoding="utf-8"?>
<svg version="1.1" xmlns:xlink="http://www.w3.org/1999/xlink" width="32px" height="32px" viewBox="1118 766  32 32" xmlns="http://www.w3.org/2000/svg">
  <path d="M 1134 766  C 1142.96 766  1150 773.04  1150 782  C 1150 790.96  1142.96 798  1134 798  C 1125.04 798  1118 790.96  1118 782  C 1118 773.04  1125.04 766  1134 766  Z " fill-rule="nonzero" fill="#ffffff" stroke="none" />
  <path d="M 1134 766.5  C 1142.68 766.5  1149.5 773.32  1149.5 782  C 1149.5 790.68  1142.68 797.5  1134 797.5  C 1125.32 797.5  1118.5 790.68  1118.5 782  C 1118.5 773.32  1125.32 766.5  1134 766.5  Z " stroke-width="1" stroke="#797979" fill="none" />
  <path d="M 1134 790  C 1129.52 790  1126 786.48  1126 782  C 1126 777.52  1129.52 774  1134 774  C 1138.48 774  1142 777.52  1142 782  C 1142 786.48  1138.48 790  1134 790  " fill-rule="nonzero" fill="#797979" stroke="none" />
</svg>