<?xml version="1.0" encoding="utf-8"?>
<svg version="1.1" xmlns:xlink="http://www.w3.org/1999/xlink" width="32px" height="32px" viewBox="1118 927  32 32" xmlns="http://www.w3.org/2000/svg">
  <path d="M 1134 927  C 1142.96 927  1150 934.04  1150 943  C 1150 951.96  1142.96 959  1134 959  C 1125.04 959  1118 951.96  1118 943  C 1118 934.04  1125.04 927  1134 927  Z " fill-rule="nonzero" fill="#ffffff" stroke="none" />
  <path d="M 1134 927.5  C 1142.68 927.5  1149.5 934.32  1149.5 943  C 1149.5 951.68  1142.68 958.5  1134 958.5  C 1125.32 958.5  1118.5 951.68  1118.5 943  C 1118.5 934.32  1125.32 927.5  1134 927.5  Z " stroke-width="1" stroke="#797979" fill="none" />
  <path d="M 1134 951  C 1129.52 951  1126 947.48  1126 943  C 1126 938.52  1129.52 935  1134 935  C 1138.48 935  1142 938.52  1142 943  C 1142 947.48  1138.48 951  1134 951  " fill-rule="nonzero" fill="#797979" stroke="none" />
</svg>