<?xml version="1.0" encoding="utf-8"?>
<svg version="1.1" xmlns:xlink="http://www.w3.org/1999/xlink" width="32px" height="32px" viewBox="1118 980  32 32" xmlns="http://www.w3.org/2000/svg">
  <path d="M 1134 980  C 1142.96 980  1150 987.04  1150 996  C 1150 1004.96  1142.96 1012  1134 1012  C 1125.04 1012  1118 1004.96  1118 996  C 1118 987.04  1125.04 980  1134 980  Z " fill-rule="nonzero" fill="#ffffff" stroke="none" />
  <path d="M 1134 980.5  C 1142.68 980.5  1149.5 987.32  1149.5 996  C 1149.5 1004.68  1142.68 1011.5  1134 1011.5  C 1125.32 1011.5  1118.5 1004.68  1118.5 996  C 1118.5 987.32  1125.32 980.5  1134 980.5  Z " stroke-width="1" stroke="#797979" fill="none" />
  <path d="M 1134 1004  C 1129.52 1004  1126 1000.48  1126 996  C 1126 991.52  1129.52 988  1134 988  C 1138.48 988  1142 991.52  1142 996  C 1142 1000.48  1138.48 1004  1134 1004  " fill-rule="nonzero" fill="#797979" stroke="none" />
</svg>