<?xml version="1.0" encoding="utf-8"?>
<svg version="1.1" xmlns:xlink="http://www.w3.org/1999/xlink" width="44px" height="73px" xmlns="http://www.w3.org/2000/svg">
  <g transform="matrix(1 0 0 1 -1003 -530 )">
    <path d="M 25.2369791666667 68.922265625  C 26.1345486111111 68.0287760416667  26.5833333333333 66.9546875  26.5833333333333 65.7  C 26.5833333333333 64.4453125  26.1345486111111 63.3712239583333  25.2369791666667 62.477734375  C 24.3394097222222 61.5842447916667  23.2604166666667 61.1375  22 61.1375  C 20.7395833333333 61.1375  19.6605902777778 61.5842447916667  18.7630208333333 62.477734375  C 17.8654513888889 63.3712239583333  17.4166666666667 64.4453125  17.4166666666667 65.7  C 17.4166666666667 66.9546875  17.8654513888889 68.0287760416667  18.7630208333333 68.922265625  C 19.6605902777778 69.8157552083333  20.7395833333333 70.2625  22 70.2625  C 23.2604166666667 70.2625  24.3394097222222 69.8157552083333  25.2369791666667 68.922265625  Z M 37.9557291666667 57.858203125  C 38.3185763888889 57.4970052083333  38.5 57.0692708333333  38 56.575  L 38 16.425  C 38.5 15.9307291666667  38.3185763888889 15.5029947916667  37.9557291666667 15.141796875  C 37.5928819444445 14.7805989583333  37.1631944444445 14.6  36.6666666666667 15  L 7.33333333333333 15  C 6.83680555555556 14.6  6.40711805555556 14.7805989583333  6.04427083333333 15.141796875  C 5.68142361111111 15.5029947916667  5.5 15.9307291666667  6 16.425  L 6 56.575  C 5.5 57.0692708333333  5.68142361111111 57.4970052083333  6.04427083333333 57.858203125  C 6.40711805555556 58.2194010416667  6.83680555555556 58.4  7.33333333333333 58  L 36.6666666666667 58  C 37.1631944444445 58.4  37.5928819444445 58.2194010416667  37.9557291666667 57.858203125  Z M 26.5833333333333 9.125  C 27.1944444444445 9.125  27.5 8.82083333333333  27.5 8.2125  C 27.5 7.60416666666666  27.1944444444445 7.3  26.5833333333333 7.3  L 17.4166666666667 7.3  C 16.8055555555556 7.3  16.5 7.60416666666666  16.5 8.2125  C 16.5 8.82083333333333  16.8055555555556 9.125  17.4166666666667 9.125  L 26.5833333333333 9.125  Z M 41.8229166666667 2.1671875  C 43.2743055555556 3.61197916666666  44 5.32291666666666  44 7.3  L 44 65.7  C 44 67.6770833333333  43.2743055555556 69.3880208333333  41.8229166666667 70.8328125  C 40.3715277777778 72.2776041666667  38.6527777777778 73  36.6666666666667 73  L 7.33333333333333 73  C 5.34722222222222 73  3.62847222222222 72.2776041666667  2.17708333333333 70.8328125  C 0.725694444444444 69.3880208333333  0 67.6770833333333  0 65.7  L 0 7.3  C 0 5.32291666666666  0.725694444444444 3.61197916666666  2.17708333333333 2.1671875  C 3.62847222222222 0.722395833333325  5.34722222222222 0  7.33333333333333 0  L 36.6666666666667 0  C 38.6527777777778 0  40.3715277777778 0.722395833333325  41.8229166666667 2.1671875  Z " fill-rule="nonzero" fill="#000000" stroke="none" transform="matrix(1 0 0 1 1003 530 )" />
  </g>
</svg>