<?xml version="1.0" encoding="utf-8"?>
<svg version="1.1" xmlns:xlink="http://www.w3.org/1999/xlink" width="79px" height="62px" xmlns="http://www.w3.org/2000/svg">
  <g transform="matrix(1 0 0 1 -985 -536 )">
    <path d="M 38.07275390625 44.7845052083333  C 39.0242513020833 43.6408420138889  39.5 42.2078993055556  39.5 40.4856770833333  C 39.5 38.7634548611111  39.38427734375 37.1825086805556  39.15283203125 35.7428385416667  C 38.92138671875 34.3031684027778  38.5420735677083 32.9173177083333  38.014892578125 31.5852864583333  C 37.4877115885417 30.2532552083333  36.7097981770833 29.2037760416667  35.68115234375 28.4368489583333  C 34.6525065104167 27.669921875  33.4052734375 27.2864583333333  31.939453125 27.2864583333333  C 31.78515625 27.3940972222222  31.3994140625 27.6362847222222  30.7822265625 28.0130208333333  C 30.1650390625 28.3897569444444  29.682861328125 28.6790364583333  29.335693359375 28.880859375  C 28.988525390625 29.0826822916667  28.5320638020833 29.3181423611111  27.96630859375 29.5872395833333  C 27.4005533854167 29.8563368055556  26.84765625 30.0514322916667  26.3076171875 30.1725260416667  C 25.767578125 30.2936197916667  25.2275390625 30.3541666666667  24.6875 30.3541666666667  C 24.1474609375 30.3541666666667  23.607421875 30.2936197916667  23.0673828125 30.1725260416667  C 22.52734375 30.0514322916667  21.9744466145833 29.8563368055556  21.40869140625 29.5872395833333  C 20.8429361979167 29.3181423611111  20.386474609375 29.0826822916667  20.039306640625 28.880859375  C 19.692138671875 28.6790364583333  19.2099609375 28.3897569444444  18.5927734375 28.0130208333333  C 17.9755859375 27.6362847222222  17.58984375 27.3940972222222  17.435546875 27.2864583333333  C 15.9697265625 27.2864583333333  14.7224934895833 27.669921875  13.69384765625 28.4368489583333  C 12.6652018229167 29.2037760416667  11.8872884114583 30.2532552083333  11.360107421875 31.5852864583333  C 10.8329264322917 32.9173177083333  10.45361328125 34.3031684027778  10.22216796875 35.7428385416667  C 9.99072265625 37.1825086805556  9.875 38.7634548611111  9.875 40.4856770833333  C 9.875 42.2078993055556  10.3507486979167 43.6408420138889  11.30224609375 44.7845052083333  C 12.2537434895833 45.9281684027778  13.423828125 46.5  14.8125 46  L 34.5625 46  C 35.951171875 46.5  37.1212565104167 45.9281684027778  38.07275390625 44.7845052083333  Z M 30.878662109375 25.974609375  C 32.5887858072917 24.1851128472222  33.44384765625 22.0256076388889  33.44384765625 19.49609375  C 33.44384765625 16.9665798611111  32.5887858072917 14.8070746527778  30.878662109375 13.017578125  C 29.1685384114583 11.2280815972222  27.1048177083333 10.3333333333333  24.6875 10.3333333333333  C 22.2701822916667 10.3333333333333  20.2064615885417 11.2280815972222  18.496337890625 13.017578125  C 16.7862141927083 14.8070746527778  15.93115234375 16.9665798611111  15.93115234375 19.49609375  C 15.93115234375 22.0256076388889  16.7862141927083 24.1851128472222  18.496337890625 25.974609375  C 20.2064615885417 27.7641059027778  22.2701822916667 28.6588541666667  24.6875 28.6588541666667  C 27.1048177083333 28.6588541666667  29.1685384114583 27.7641059027778  30.878662109375 25.974609375  Z M 68.77783203125 40.9700520833333  C 69.00927734375 40.7278645833333  69.125 40.4184027777778  69.125 40.0416666666667  L 69.125 37.4583333333333  C 69.125 37.0815972222222  69.00927734375 36.7721354166667  68.77783203125 36.5299479166667  C 68.54638671875 36.2877604166667  68.2506510416667 36.1666666666667  67.890625 36  L 45.671875 36  C 45.3118489583333 36.1666666666667  45.01611328125 36.2877604166667  44.78466796875 36.5299479166667  C 44.55322265625 36.7721354166667  44.4375 37.0815972222222  44.4375 37.4583333333333  L 44.4375 40.0416666666667  C 44.4375 40.4184027777778  44.55322265625 40.7278645833333  44.78466796875 40.9700520833333  C 45.01611328125 41.2122395833333  45.3118489583333 41.3333333333333  45.671875 41  L 67.890625 41  C 68.2506510416667 41.3333333333333  68.54638671875 41.2122395833333  68.77783203125 40.9700520833333  Z M 68.719970703125 30.576171875  C 68.989990234375 30.2936197916667  69.125 29.9505208333333  69.125 29.546875  L 69.125 27.2864583333333  C 69.125 26.8828125  68.989990234375 26.5397135416667  68.719970703125 26.2571614583333  C 68.449951171875 25.974609375  68.1220703125 25.8333333333333  67.736328125 26  L 45.826171875 26  C 45.4404296875 25.8333333333333  45.112548828125 25.974609375  44.842529296875 26.2571614583333  C 44.572509765625 26.5397135416667  44.4375 26.8828125  44.4375 27.2864583333333  L 44.4375 29.546875  C 44.4375 29.9505208333333  44.572509765625 30.2936197916667  44.842529296875 30.576171875  C 45.112548828125 30.8587239583333  45.4404296875 31  45.826171875 31  L 67.736328125 31  C 68.1220703125 31  68.449951171875 30.8587239583333  68.719970703125 30.576171875  Z M 68.77783203125 20.3033854166667  C 69.00927734375 20.0611979166667  69.125 19.7517361111111  69.125 19.375  L 69.125 16.7916666666667  C 69.125 16.4149305555555  69.00927734375 16.10546875  68.77783203125 15.86328125  C 68.54638671875 15.62109375  68.2506510416667 15.5  67.890625 16  L 45.671875 16  C 45.3118489583333 15.5  45.01611328125 15.62109375  44.78466796875 15.86328125  C 44.55322265625 16.10546875  44.4375 16.4149305555555  44.4375 16.7916666666667  L 44.4375 19.375  C 44.4375 19.7517361111111  44.55322265625 20.0611979166667  44.78466796875 20.3033854166667  C 45.01611328125 20.5455729166667  45.3118489583333 20.6666666666667  45.671875 21  L 67.890625 21  C 68.2506510416667 20.6666666666667  68.54638671875 20.5455729166667  68.77783203125 20.3033854166667  Z M 77.18701171875 1.89713541666667  C 78.3956705729167 3.16189236111111  79 4.68229166666667  79 6.45833333333333  L 79 55.5416666666667  C 79 57.3177083333333  78.3956705729167 58.8381076388889  77.18701171875 60.1028645833333  C 75.9783528645833 61.3676215277778  74.525390625 62  72.828125 62  L 59.25 62  L 59.25 58.125  C 59.25 57.7482638888889  59.13427734375 57.4388020833333  58.90283203125 57.1966145833333  C 58.67138671875 56.9544270833333  58.3756510416667 56.8333333333333  58.015625 56.8333333333333  L 55.546875 56.8333333333333  C 55.1868489583333 56.8333333333333  54.89111328125 56.9544270833333  54.65966796875 57.1966145833333  C 54.42822265625 57.4388020833333  54.3125 57.7482638888889  54.3125 58.125  L 54.3125 62  L 24.6875 62  L 24.6875 58.125  C 24.6875 57.7482638888889  24.57177734375 57.4388020833333  24.34033203125 57.1966145833333  C 24.10888671875 56.9544270833333  23.8131510416667 56.8333333333333  23.453125 56.8333333333333  L 20.984375 56.8333333333333  C 20.6243489583333 56.8333333333333  20.32861328125 56.9544270833333  20.09716796875 57.1966145833333  C 19.86572265625 57.4388020833333  19.75 57.7482638888889  19.75 58.125  L 19.75 62  L 6.171875 62  C 4.474609375 62  3.02164713541667 61.3676215277778  1.81298828125 60.1028645833333  C 0.604329427083333 58.8381076388889  0 57.3177083333333  0 55.5416666666667  L 0 6.45833333333333  C 0 4.68229166666667  0.604329427083333 3.16189236111111  1.81298828125 1.89713541666667  C 3.02164713541667 0.632378472222216  4.474609375 0  6.171875 0  L 72.828125 0  C 74.525390625 0  75.9783528645833 0.632378472222216  77.18701171875 1.89713541666667  Z " fill-rule="nonzero" fill="#000000" stroke="none" transform="matrix(1 0 0 1 985 536 )" />
  </g>
</svg>