<?xml version="1.0" encoding="utf-8"?>
<svg version="1.1" xmlns:xlink="http://www.w3.org/1999/xlink" width="285px" height="133px" xmlns="http://www.w3.org/2000/svg">
  <g transform="matrix(1 0 0 1 -1523 -608 )">
    <path d="M 1524 618  A 9 9 0 0 1 1533 609 L 1798 609  A 9 9 0 0 1 1807 618 L 1807 731  A 9 9 0 0 1 1798 740 L 1533 740  A 9 9 0 0 1 1524 731 L 1524 618  Z " fill-rule="nonzero" fill="#4bd516" stroke="none" fill-opacity="0.192156862745098" />
    <path d="M 1523.5 618  A 9.5 9.5 0 0 1 1533 608.5 L 1798 608.5  A 9.5 9.5 0 0 1 1807.5 618 L 1807.5 731  A 9.5 9.5 0 0 1 1798 740.5 L 1533 740.5  A 9.5 9.5 0 0 1 1523.5 731 L 1523.5 618  Z " stroke-width="1" stroke="#000000" fill="none" stroke-opacity="0.831372549019608" />
  </g>
</svg>