<?xml version="1.0" encoding="utf-8"?>
<svg version="1.1" xmlns:xlink="http://www.w3.org/1999/xlink" width="38px" height="48px" xmlns="http://www.w3.org/2000/svg">
  <g transform="matrix(1 0 0 1 -1557 -671 )">
    <path d="M 1565.1 718.5  L 1594.5 718.5  L 1594.5 686.7  L 1579.3 671.5  L 1557.5 671.5  L 1557.5 710.9  L 1561.3 710.9  L 1561.3 714.7  L 1565.1 714.7  L 1565.1 718.5  Z " fill-rule="nonzero" fill="#ffffff" stroke="none" />
    <path d="M 1565.1 718.5  L 1594.5 718.5  L 1594.5 686.7  L 1579.3 671.5  L 1557.5 671.5  L 1557.5 710.9  L 1561.3 710.9  L 1561.3 714.7  L 1565.1 714.7  L 1565.1 718.5  Z " stroke-width="1" stroke="#797979" fill="none" />
    <path d="M 1586.9 682.9  L 1590.7 683.4  L 1590.7 714.7  L 1565.6 714.7  M 1579.3 672  L 1579.3 679.1  L 1586.9 679.1  L 1586.9 710.9  L 1561.8 710.9  M 1594 686.7  L 1590.7 686.7  " stroke-width="1" stroke="#797979" fill="none" />
  </g>
</svg>