<?xml version="1.0" encoding="utf-8"?>
<svg version="1.1" xmlns:xlink="http://www.w3.org/1999/xlink" width="32px" height="32px" xmlns="http://www.w3.org/2000/svg">
  <g transform="matrix(1 0 0 1 -1314 -1040 )">
    <path d="M 1330 1040  C 1338.96 1040  1346 1047.04  1346 1056  C 1346 1064.96  1338.96 1072  1330 1072  C 1321.04 1072  1314 1064.96  1314 1056  C 1314 1047.04  1321.04 1040  1330 1040  Z " fill-rule="nonzero" fill="#756d6d" stroke="none" />
    <path d="M 1330 1040.5  C 1338.68 1040.5  1345.5 1047.32  1345.5 1056  C 1345.5 1064.68  1338.68 1071.5  1330 1071.5  C 1321.32 1071.5  1314.5 1064.68  1314.5 1056  C 1314.5 1047.32  1321.32 1040.5  1330 1040.5  Z " stroke-width="1" stroke="#797979" fill="none" />
  </g>
</svg>