<?xml version="1.0" encoding="utf-8"?>
<svg version="1.1" xmlns:xlink="http://www.w3.org/1999/xlink" width="285px" height="133px" xmlns="http://www.w3.org/2000/svg">
  <g transform="matrix(1 0 0 1 -709 -608 )">
    <path d="M 710 618  A 9 9 0 0 1 719 609 L 984 609  A 9 9 0 0 1 993 618 L 993 731  A 9 9 0 0 1 984 740 L 719 740  A 9 9 0 0 1 710 731 L 710 618  Z " fill-rule="nonzero" fill="#169bd5" stroke="none" fill-opacity="0.192156862745098" />
    <path d="M 709.5 618  A 9.5 9.5 0 0 1 719 608.5 L 984 608.5  A 9.5 9.5 0 0 1 993.5 618 L 993.5 731  A 9.5 9.5 0 0 1 984 740.5 L 719 740.5  A 9.5 9.5 0 0 1 709.5 731 L 709.5 618  Z " stroke-width="1" stroke="#000000" fill="none" stroke-opacity="0.831372549019608" />
  </g>
</svg>