<?xml version="1.0" encoding="utf-8"?>
<svg version="1.1" xmlns:xlink="http://www.w3.org/1999/xlink" width="285px" height="133px" xmlns="http://www.w3.org/2000/svg">
  <g transform="matrix(1 0 0 1 -1116 -608 )">
    <path d="M 1117 618  A 9 9 0 0 1 1126 609 L 1391 609  A 9 9 0 0 1 1400 618 L 1400 731  A 9 9 0 0 1 1391 740 L 1126 740  A 9 9 0 0 1 1117 731 L 1117 618  Z " fill-rule="nonzero" fill="#ce6a2f" stroke="none" fill-opacity="0.192156862745098" />
    <path d="M 1116.5 618  A 9.5 9.5 0 0 1 1126 608.5 L 1391 608.5  A 9.5 9.5 0 0 1 1400.5 618 L 1400.5 731  A 9.5 9.5 0 0 1 1391 740.5 L 1126 740.5  A 9.5 9.5 0 0 1 1116.5 731 L 1116.5 618  Z " stroke-width="1" stroke="#000000" fill="none" stroke-opacity="0.831372549019608" />
  </g>
</svg>